<svg width="32" height="32" viewBox="0 0 32 32" fill="none" xmlns="http://www.w3.org/2000/svg">
<path d="M16.7188 16.7125L19.5388 19.5325L13.1688 25.9025C12.3888 26.6825 11.1288 26.6825 10.3488 25.9025C9.94876 25.5125 9.75876 25.0025 9.75876 24.4925C9.75876 23.9825 9.94876 23.4625 10.3488 23.0725L16.7188 16.7125Z" fill="#98999B"/>
<path d="M21.6588 17.4125L20.2488 18.8225L17.4188 16.0025L10.3488 8.93245C9.55876 8.15245 9.55876 6.88245 10.3488 6.10245C10.7388 5.71245 11.2488 5.51245 11.7588 5.51245C12.2688 5.51245 12.7788 5.71245 13.1688 6.10245L21.6588 14.5925C22.4388 15.3725 22.4388 16.6325 21.6588 17.4125Z" fill="#98999B"/>
</svg>
