<svg width="32" height="32" viewBox="0 0 32 32" fill="#040404" xmlns="http://www.w3.org/2000/svg">
<path d="M15.2812 16.7125L12.4612 19.5325L18.8312 25.9025C19.6112 26.6825 20.8712 26.6825 21.6512 25.9025C22.0512 25.5125 22.2412 25.0025 22.2412 24.4925C22.2412 23.9825 22.0512 23.4625 21.6512 23.0725L15.2812 16.7125Z" fill="#040404"/>
<path d="M10.3412 17.4125L11.7512 18.8225L14.5812 16.0025L21.6512 8.93245C22.4412 8.15245 22.4412 6.88245 21.6512 6.10245C21.2612 5.71245 20.7512 5.51245 20.2412 5.51245C19.7312 5.51245 19.2212 5.71245 18.8312 6.10245L10.3412 14.5925C9.5612 15.3725 9.5612 16.6325 10.3412 17.4125Z" fill="#040404"/>
</svg>
