<svg width="36" height="36" viewBox="0 0 36 36" fill="none" xmlns="http://www.w3.org/2000/svg">
<path d="M12.3102 13.3207C11.8561 13.0063 11.2331 13.1196 10.9188 13.5737C10.6044 14.0278 10.7177 14.6507 11.1718 14.9651L12.3102 13.3207ZM18.241 18.6429L17.6718 19.4651C18.0142 19.7022 18.4677 19.7022 18.8102 19.4651L18.241 18.6429ZM25.3102 14.9651C25.7643 14.6507 25.8775 14.0278 25.5632 13.5737C25.2488 13.1196 24.6258 13.0063 24.1718 13.3207L25.3102 14.9651ZM11.1718 14.9651L17.6718 19.4651L18.8102 17.8207L12.3102 13.3207L11.1718 14.9651ZM18.8102 19.4651L25.3102 14.9651L24.1718 13.3207L17.6718 17.8207L18.8102 19.4651ZM6 24.4286V11.5714H4V24.4286H6ZM6 11.5714C6 10.7139 6.7059 10 7.6 10V8C5.62222 8 4 9.5886 4 11.5714H6ZM7.6 10H28.4V8H7.6V10ZM28.4 10C29.2941 10 30 10.7139 30 11.5714H32C32 9.5886 30.3778 8 28.4 8V10ZM30 11.5714V24.4286H32V11.5714H30ZM30 24.4286C30 25.2861 29.2942 26 28.4 26V28C30.3778 28 32 26.4115 32 24.4286H30ZM28.4 26H7.6V28H28.4V26ZM7.6 26C6.70587 26 6 25.2861 6 24.4286H4C4 26.4115 5.62225 28 7.6 28V26Z" fill="#F3F9FF"/>
</svg>
