<svg width="37" height="36" viewBox="0 0 37 36" fill="none" xmlns="http://www.w3.org/2000/svg">
<path d="M31.6665 18.5C31.6665 25.9558 25.6223 32 18.1665 32M31.6665 18.5C31.6665 11.0442 25.6223 5 18.1665 5M31.6665 18.5H4.6665M18.1665 32C10.7107 32 4.6665 25.9558 4.6665 18.5M18.1665 32C21.5432 28.3032 23.4622 23.5058 23.5665 18.5C23.4622 13.4942 21.5432 8.69678 18.1665 5M18.1665 32C14.7898 28.3032 12.8708 23.5058 12.7665 18.5C12.8708 13.4942 14.7898 8.69678 18.1665 5M4.6665 18.5C4.6665 11.0442 10.7107 5 18.1665 5" stroke="#4E7997" stroke-width="2" stroke-linecap="round" stroke-linejoin="round"/>
</svg>
