<svg xmlns="http://www.w3.org/2000/svg" xmlns:xlink="http://www.w3.org/1999/xlink" version="1.1" width="597.333" height="216.889" viewBox="0 0 597.333 216.889">
<defs>
<clipPath id="clip_0">
<path transform="matrix(1,0,0,-1,0,216.889)" d="M0 216.889H597.333V0H0Z"/>
</clipPath>
</defs>
<g id="layer_1" data-name="Слой 1">
<g clip-path="url(#clip_0)">
<path transform="matrix(1,0,0,-1,125.3617,139.7158)" d="M0 0-9.744 12.858C-12.097 15.875-14.187 18.186-16.014 19.764-17.827 21.356-19.806 22.477-21.951 23.128-8.498 25.328-1.772 30.74-1.772 39.363-1.772 45.563-4.387 50.49-9.619 54.144-14.837 57.784-21.55 59.611-29.716 59.611H-73.881C-75.265 59.611-76.455 59.196-77.41 58.366-78.379 57.535-78.864 56.539-78.864 55.39V47.016H-35.875C-32.193 47.016-28.954 46.407-26.159 45.189-23.349 43.985-21.951 42.034-21.951 39.363-21.951 36.705-23.349 34.754-26.159 33.536-28.954 32.318-32.193 31.723-35.875 31.723H-58.67V42.449H-78.864V0C-78.864-1.163-78.365-2.145-77.355-2.962-76.359-3.779-75.168-4.18-73.77-4.18H-63.708C-62.324-4.18-61.134-3.779-60.151-2.962-59.169-2.145-58.67-1.163-58.67 0V19.128H-45.619C-40.304 19.128-35.764 16.692-32.013 11.834L-22.92 0C-22.062-1.163-20.816-2.145-19.197-2.962-17.578-3.779-16.083-4.18-14.726-4.18H-1.882C-.055-4.18 .858-3.543 .858-2.27 .858-1.592 .567-.83 0 0" fill="#ffffff"/>
<path transform="matrix(1,0,0,-1,175.6446,111.31501)" d="M0 0C-.623 .526-1.412 .775-2.381 .775H-42.74C-43.667 .775-44.442 .526-45.065 0-45.688-.512-46.006-1.176-46.006-1.979V-7.266C-46.006-8.069-45.702-8.72-45.093-9.232-44.484-9.73-43.709-9.979-42.74-9.979H-2.381C-1.412-9.979-.623-9.73 0-9.232 .637-8.72 .941-8.069 .941-7.266V-1.979C.941-1.176 .637-.512 0 0" fill="#ffffff"/>
<path transform="matrix(1,0,0,-1,215.7685,119.5639)" d="M0 0-14.131 35.238C-14.63 36.442-15.46 37.453-16.636 38.255-17.827 39.058-19.1 39.459-20.498 39.459H-32.221C-33.467 39.459-34.408 39.155-35.031 38.546-35.653 37.937-35.972 37.411-35.972 36.941-35.972 36.484-35.875 36.082-35.695 35.723L-11.82-19.806C-10.505-22.823-7.958-24.332-4.166-24.332H3.64C7.571-24.332 10.117-22.823 11.308-19.806L21.771 7.668 12.194 32.885ZM83.708 38.546C83.085 39.155 82.158 39.459 80.954 39.459H69.231C67.833 39.459 66.545 39.058 65.369 38.255 64.193 37.453 63.348 36.442 62.85 35.238L48.719 0 35.653 35.238C34.629 38.048 32.498 39.459 29.287 39.459H19.432C17.716 39.459 16.318 39.058 15.225 38.255L24.304 14.339 37.425-19.806C38.574-22.823 41.12-24.332 45.079-24.332H52.843C56.663-24.332 59.238-22.823 60.553-19.806L84.428 35.723C84.566 36.082 84.635 36.484 84.635 36.941 84.635 37.411 84.331 37.937 83.708 38.546" fill="#ffffff"/>
<path transform="matrix(1,0,0,-1,376.0009,92.69941)" d="M0 0C1.384 0 2.574 .415 3.557 1.232 4.54 2.048 5.024 3.031 5.024 4.18V8.374C5.024 9.522 4.54 10.519 3.557 11.349 2.574 12.18 1.384 12.595 0 12.595H-61.729C-63.113 12.595-64.317 12.194-65.314 11.391-66.31 10.588-66.808 9.619-66.808 8.457V-46.933C-66.808-48.151-66.31-49.162-65.314-49.978-64.317-50.795-63.113-51.196-61.729-51.196H-.277C1.121-51.196 2.311-50.795 3.322-49.978 4.318-49.162 4.817-48.179 4.817-47.016V-42.754C4.817-41.591 4.332-40.608 3.377-39.819 2.408-39.017 1.246-38.615-.111-38.615H-46.629V-25.48H-6.477C-5.093-25.48-3.903-25.079-2.92-24.263-1.938-23.446-1.453-22.463-1.453-21.301V-17.121C-1.453-15.972-1.938-14.976-2.92-14.173-3.903-13.356-5.093-12.941-6.477-12.941H-46.629V0Z" fill="#ffffff"/>
<path transform="matrix(1,0,0,-1,461.2451,132.5603)" d="M0 0C-.983 .83-2.159 1.246-3.557 1.246H-50.186V48.138C-50.186 49.355-50.67 50.38-51.653 51.21-52.636 52.041-53.826 52.456-55.21 52.456H-65.272C-66.67 52.456-67.86 52.041-68.871 51.21-69.867 50.38-70.366 49.355-70.366 48.138V-7.252C-70.366-8.401-69.867-9.384-68.871-10.159-67.86-10.948-66.67-11.335-65.272-11.335H-3.557C-2.159-11.335-.983-10.934 0-10.117 .983-9.301 1.481-8.318 1.481-7.156V-2.976C1.481-1.827 .983-.83 0 0" fill="#ffffff"/>
<path transform="matrix(1,0,0,-1,525.4655,126.95491)" d="M0 0C-3.46-2.906-9.993-4.36-19.598-4.36H-33.84V34.255H-19.598C-9.993 34.255-3.46 32.802 0 29.882 3.46 26.961 5.19 21.979 5.19 14.934 5.19 7.889 3.46 2.906 0 0M14.796 39.127C7.751 44.276-3.516 46.85-19.003 46.85H-48.927C-50.324 46.85-51.515 46.435-52.525 45.605-53.522 44.774-54.02 43.75-54.02 42.532V-12.858C-54.02-14.007-53.522-14.989-52.525-15.764-51.515-16.553-50.324-16.941-48.927-16.941H-19.003C-3.516-16.941 7.751-14.38 14.796-9.245 21.84-4.124 25.37 3.945 25.37 14.934 25.37 25.923 21.84 33.979 14.796 39.127" fill="#ffffff"/>
</g>
</g>
</svg>
