<svg width="48" height="48" viewBox="0 0 48 48" fill="none" xmlns="http://www.w3.org/2000/svg">
<path d="M34.2218 32.1525L15.13 13.0607C14.5442 12.4749 13.5944 12.4749 13.0086 13.0607C12.4229 13.6464 12.4229 14.5962 13.0086 15.182L32.1005 34.2739C32.6863 34.8597 33.6361 34.8597 34.2218 34.2739C34.8076 33.6881 34.8076 32.7383 34.2218 32.1525Z" fill="#212121"/>
<path d="M32.1003 12.8475L13.0085 31.9393C12.4227 32.5251 12.4227 33.4749 13.0085 34.0607C13.5942 34.6464 14.544 34.6464 15.1298 34.0607L34.2217 14.9688C34.8074 14.383 34.8074 13.4332 34.2217 12.8475C33.6359 12.2617 32.6861 12.2617 32.1003 12.8475Z" fill="#212121"/>
</svg>
