<svg width="36" height="36" viewBox="0 0 36 36" fill="none" xmlns="http://www.w3.org/2000/svg">
<path d="M15.3093 22.9615C14.757 22.9615 14.3093 23.4093 14.3093 23.9615C14.3093 24.5138 14.757 24.9615 15.3093 24.9615V22.9615ZM3 8C2.44772 8 2 8.44772 2 9C2 9.55228 2.44772 10 3 10V8ZM9.32459 24.9618C9.87687 24.9618 10.3246 24.5141 10.3246 23.9618C10.3246 23.4095 9.87687 22.9618 9.32459 22.9618V24.9618ZM6.72021 16.481C6.72021 15.9287 6.2725 15.481 5.72021 15.481C5.16793 15.481 4.72021 15.9287 4.72021 16.481H6.72021ZM4.36011 12.0806C3.80782 12.0806 3.36011 12.5283 3.36011 13.0806C3.36011 13.6329 3.80782 14.0806 4.36011 14.0806V12.0806ZM9.80066 14.0806C10.3529 14.0806 10.8007 13.6329 10.8007 13.0806C10.8007 12.5283 10.3529 12.0806 9.80066 12.0806V14.0806ZM22.0417 12.0806C21.4895 12.0806 21.0417 12.5283 21.0417 13.0806C21.0417 13.6329 21.4895 14.0806 22.0417 14.0806V12.0806ZM30.4181 13.5652L31.3319 13.1591L31.3318 13.159L30.4181 13.5652ZM32.8526 19.0429L33.7666 18.6373L33.7664 18.6367L32.8526 19.0429ZM29.5226 22.9617C28.9703 22.9617 28.5226 23.4094 28.5226 23.9617C28.5226 24.514 28.9703 24.9617 29.5226 24.9617V22.9617ZM12.5209 27.682C14.5755 27.682 16.2411 26.0164 16.2411 23.9617H14.2411C14.2411 24.9118 13.4709 25.682 12.5209 25.682V27.682ZM16.2411 23.9617C16.2411 21.907 14.5755 20.2415 12.5209 20.2415V22.2415C13.4709 22.2415 14.2411 23.0116 14.2411 23.9617H16.2411ZM12.5209 20.2415C10.4662 20.2415 8.80054 21.907 8.80054 23.9617H10.8005C10.8005 23.0116 11.5707 22.2415 12.5209 22.2415V20.2415ZM8.80054 23.9617C8.80054 26.0164 10.4662 27.682 12.5209 27.682V25.682C11.5707 25.682 10.8005 24.9118 10.8005 23.9617H8.80054ZM26.1224 27.682C28.177 27.682 29.8427 26.0165 29.8427 23.9617H27.8427C27.8427 24.9118 27.0725 25.682 26.1224 25.682V27.682ZM29.8427 23.9617C29.8427 21.907 28.177 20.2415 26.1224 20.2415V22.2415C27.0725 22.2415 27.8427 23.0116 27.8427 23.9617H29.8427ZM26.1224 20.2415C24.0676 20.2415 22.4021 21.907 22.4021 23.9617H24.4021C24.4021 23.0116 25.1722 22.2415 26.1224 22.2415V20.2415ZM22.4021 23.9617C22.4021 26.0164 24.0676 27.682 26.1224 27.682V25.682C25.1722 25.682 24.4021 24.9118 24.4021 23.9617H22.4021ZM15.3093 24.9615H22.042V22.9615H15.3093V24.9615ZM23.042 23.9615V9.81609H21.042V23.9615H23.042ZM23.042 9.81609C23.042 8.81306 22.2288 8 21.2259 8V10C21.1243 10 21.042 9.91769 21.042 9.81609H23.042ZM21.2259 8H3V10H21.2259V8ZM9.32459 22.9618H6.5363V24.9618H9.32459V22.9618ZM6.5363 22.9618C6.6379 22.9618 6.72021 23.0441 6.72021 23.1457H4.72021C4.72021 24.1486 5.53328 24.9618 6.5363 24.9618V22.9618ZM6.72021 23.1457V16.481H4.72021V23.1457H6.72021ZM4.36011 14.0806H9.80066V12.0806H4.36011V14.0806ZM22.0417 14.0806H29.6723V12.0806H22.0417V14.0806ZM29.6723 14.0806C29.5995 14.0806 29.5338 14.0377 29.5043 13.9714L31.3318 13.159C31.0403 12.5033 30.39 12.0806 29.6723 12.0806V14.0806ZM29.5042 13.9713L31.9388 19.449L33.7664 18.6367L31.3319 13.1591L29.5042 13.9713ZM31.9385 19.4485C31.9283 19.4254 31.9229 19.4002 31.9229 19.3743H33.9229C33.9229 19.1202 33.8695 18.8692 33.7666 18.6373L31.9385 19.4485ZM31.9229 19.3743V23.1456H33.9229V19.3743H31.9229ZM31.9229 23.1456C31.9229 23.0441 32.0052 22.9617 32.1068 22.9617V24.9617C33.1099 24.9617 33.9229 24.1485 33.9229 23.1456H31.9229ZM32.1068 22.9617H29.5226V24.9617H32.1068V22.9617ZM22.0418 24.9615L23.402 24.9617L23.4022 22.9617L22.0421 22.9615L22.0418 24.9615Z" fill="#F3F9FF"/>
</svg>
