<svg width="37" height="36" viewBox="0 0 37 36" fill="none" xmlns="http://www.w3.org/2000/svg">
<path d="M12.9767 13.3207C12.5226 13.0063 11.8996 13.1196 11.5853 13.5737C11.2709 14.0278 11.3842 14.6507 11.8383 14.9651L12.9767 13.3207ZM18.9075 18.6429L18.3383 19.4651C18.6807 19.7022 19.1342 19.7022 19.4767 19.4651L18.9075 18.6429ZM25.9767 14.9651C26.4308 14.6507 26.544 14.0278 26.2297 13.5737C25.9153 13.1196 25.2923 13.0063 24.8383 13.3207L25.9767 14.9651ZM11.8383 14.9651L18.3383 19.4651L19.4767 17.8207L12.9767 13.3207L11.8383 14.9651ZM19.4767 19.4651L25.9767 14.9651L24.8383 13.3207L18.3383 17.8207L19.4767 19.4651ZM6.6665 24.4286V11.5714H4.6665V24.4286H6.6665ZM6.6665 11.5714C6.6665 10.7139 7.3724 10 8.2665 10V8C6.28872 8 4.6665 9.5886 4.6665 11.5714H6.6665ZM8.2665 10H29.0665V8H8.2665V10ZM29.0665 10C29.9606 10 30.6665 10.7139 30.6665 11.5714H32.6665C32.6665 9.5886 31.0443 8 29.0665 8V10ZM30.6665 11.5714V24.4286H32.6665V11.5714H30.6665ZM30.6665 24.4286C30.6665 25.2861 29.9607 26 29.0665 26V28C31.0443 28 32.6665 26.4115 32.6665 24.4286H30.6665ZM29.0665 26H8.2665V28H29.0665V26ZM8.2665 26C7.37237 26 6.6665 25.2861 6.6665 24.4286H4.6665C4.6665 26.4115 6.28875 28 8.2665 28V26Z" fill="#4E7997"/>
</svg>
