<svg width="37" height="36" viewBox="0 0 37 36" fill="none" xmlns="http://www.w3.org/2000/svg">
<path d="M28.7777 15.2273C28.7777 23.1818 18.4999 30 18.4999 30C18.4999 30 8.22217 23.1818 8.22217 15.2273C8.22217 12.5148 9.305 9.91348 11.2325 7.9955C13.1599 6.07751 15.7741 5 18.4999 5C21.2258 5 23.84 6.07751 25.7675 7.9955C27.6949 9.91348 28.7777 12.5148 28.7777 15.2273Z" stroke="#25577A" stroke-width="2" stroke-linecap="round" stroke-linejoin="round"/>
<path d="M18.5015 18.6385C20.3939 18.6385 21.928 17.1119 21.928 15.2288C21.928 13.3457 20.3939 11.8192 18.5015 11.8192C16.6092 11.8192 15.0751 13.3457 15.0751 15.2288C15.0751 17.1119 16.6092 18.6385 18.5015 18.6385Z" stroke="#25577A" stroke-width="2" stroke-linecap="round" stroke-linejoin="round"/>
</svg>
