<svg width="36" height="36" viewBox="0 0 36 36" fill="none" xmlns="http://www.w3.org/2000/svg">
<path d="M28 15.2273C28 23.1818 18 30 18 30C18 30 8 23.1818 8 15.2273C8 12.5148 9.05357 9.91348 10.9289 7.9955C12.8043 6.07751 15.3478 5 18 5C20.6522 5 23.1957 6.07751 25.0711 7.9955C26.9464 9.91348 28 12.5148 28 15.2273Z" stroke="#F3F9FF" stroke-width="2" stroke-linecap="round" stroke-linejoin="round"/>
<path d="M18.0015 18.6385C19.8428 18.6385 21.3354 17.1119 21.3354 15.2288C21.3354 13.3457 19.8428 11.8192 18.0015 11.8192C16.1603 11.8192 14.6677 13.3457 14.6677 15.2288C14.6677 17.1119 16.1603 18.6385 18.0015 18.6385Z" stroke="#F3F9FF" stroke-width="2" stroke-linecap="round" stroke-linejoin="round"/>
</svg>
