<svg width="195" height="104" viewBox="0 0 195 104" fill="none" xmlns="http://www.w3.org/2000/svg">
<path d="M78.8273 56.9483L69.1209 44.6595C66.7761 41.7753 64.7008 39.5687 62.8706 38.0646C61.0651 36.5441 59.0878 35.4697 56.9472 34.858C70.3547 32.759 77.0707 27.5856 77.0707 19.3463C77.0707 13.4208 74.4561 8.71851 69.2599 5.23103C64.0472 1.74353 57.364 0.00805664 49.2263 0.00805664H5.22938C3.8486 0.00805664 2.6639 0.404738 1.71616 1.1981C0.752065 1.99147 0.27002 2.93358 0.27002 4.03272V12.0242H43.0905C46.7588 12.0242 49.9779 12.6027 52.7641 13.7679C55.5501 14.9332 56.9472 16.7843 56.9472 19.338C56.9472 21.8916 55.5501 23.7428 52.7641 24.9081C49.9779 26.0568 46.7588 26.6517 43.0905 26.6517H20.3689V16.7513H0.27002V56.9483C0.27002 58.0473 0.768406 58.9896 1.76518 59.7746C2.74561 60.5597 3.95482 60.9398 5.32743 60.9398H15.3605C16.7413 60.9398 17.926 60.5597 18.9064 59.7746C19.8869 58.9896 20.3689 58.0473 20.3689 56.9483V38.6679H33.3841C38.6867 38.6679 43.1967 40.9983 46.9304 45.6511L55.9995 56.9566C56.841 58.0558 58.0828 58.9979 59.7006 59.7829C61.3184 60.5679 62.7972 60.9482 64.1615 60.9482H76.948C78.77 60.9482 79.6688 60.3448 79.6688 59.1218C79.6688 58.4607 79.391 57.7499 78.8273 56.9566V56.9483Z" fill="#98999B"/>
<path d="M194.06 0.86774C193.44 0.289247 192.532 0 191.323 0H179.639C178.258 0 176.968 0.380152 175.8 1.14872C174.631 1.90076 173.79 2.87594 173.308 4.03292L159.23 37.693L146.215 4.03292C145.186 1.34706 143.062 0 139.867 0H130.006C127.726 0.00826418 126.19 1.88423 126.884 3.61972L134.948 23.9083L134.965 23.8834L147.612 55.7171L147.972 56.6097C149.108 59.5022 151.657 60.9401 155.595 60.9401H163.324C167.131 60.9401 169.688 59.5022 171.004 56.6097L194.78 3.57012C194.918 3.2313 195 2.84288 195 2.40487C195 1.96687 194.69 1.4545 194.051 0.86774H194.06ZM110.683 37.693L96.6054 4.03292C96.1069 2.88421 95.2817 1.90903 94.1135 1.14872C92.9288 0.380152 91.6542 0 90.2571 0H78.5899C77.3481 0 76.4002 0.289247 75.7876 0.86774C75.1666 1.4545 74.8562 1.96687 74.8562 2.40487C74.8562 2.84288 74.9461 3.2313 75.134 3.57012L98.9013 56.6097C100.225 59.5022 102.758 60.9401 106.524 60.9401H114.318C118.224 60.9401 120.773 59.5022 121.941 56.6097L132.326 30.4453L122.791 6.49566L110.683 37.693Z" fill="#25577A"/>
<path d="M35.132 97.7076H32.9098L34.2577 89.865L36.1696 78.8818H38.3919L35.132 97.7076Z" fill="#98999B"/>
<path fill-rule="evenodd" clip-rule="evenodd" d="M30.443 86.485C29.4218 85.1463 27.9511 84.4769 26.0311 84.4769L26.0229 84.4851C24.1601 84.4851 22.5097 85.1048 21.08 86.3446C19.6583 87.5842 18.7842 89.1379 18.4573 91.0138C18.1306 92.9889 18.4982 94.6583 19.5521 96.0135C20.6225 97.3772 22.1584 98.0548 24.1683 98.0548C25.3938 98.0548 26.5296 97.7987 27.5835 97.3028C28.6375 96.7987 29.4872 96.1129 30.1326 95.2368L28.4741 94.0219C27.4691 95.2947 26.121 95.931 24.4216 95.931C23.2369 95.931 22.2892 95.6087 21.5947 94.964C20.9003 94.3194 20.5489 93.427 20.5489 92.2948H31.2112C31.3581 91.832 31.448 91.4931 31.4643 91.2866C31.8238 89.3939 31.4808 87.7907 30.443 86.485ZM29.3728 90.303H20.8921C21.2598 89.1544 21.8969 88.2453 22.7875 87.5842C23.6781 86.923 24.7157 86.5924 25.9086 86.5924C27.0116 86.5924 27.8776 86.9065 28.5067 87.5429C29.1358 88.1791 29.4218 89.0965 29.3728 90.303Z" fill="#98999B"/>
<path d="M16.0137 84.8158L11.5283 94.642H11.5201L10.1965 84.8654L10.221 84.8158H8.00687L3.36616 94.6172L2.18964 84.8158H0L1.7321 97.708H4.05245L8.64415 88.138L9.94322 97.708H12.2146L18.4321 84.8158H16.0137Z" fill="#98999B"/>
<path fill-rule="evenodd" clip-rule="evenodd" d="M52.2649 79.6504L50.9414 87.237H50.9332C50.5083 86.3527 49.8873 85.675 49.0621 85.1957C48.2371 84.7164 47.2892 84.4767 46.219 84.4767C44.4869 84.4767 42.9264 85.0634 41.5538 86.2535C40.1648 87.4188 39.307 88.9973 38.9801 90.9724C38.6369 92.8813 38.9883 94.526 40.0258 95.9226C41.0554 97.3358 42.4933 98.0383 44.3316 98.0383C46.4069 98.0383 48.1144 97.311 49.4544 95.8482L49.1194 97.7076H51.3417L54.479 79.6504H52.2649ZM49.4381 87.9064C50.2305 88.7493 50.4839 89.898 50.2305 91.3608H50.2224C50.0019 92.6665 49.389 93.7492 48.3841 94.6086C47.4036 95.4516 46.219 95.8731 44.9445 95.8731C43.6699 95.8731 42.6649 95.4186 41.9133 94.5095C41.2024 93.6169 40.9656 92.4929 41.2024 91.1542C41.4231 89.7823 42.0439 88.6831 43.0652 87.8567C44.0701 87.0469 45.1487 86.6419 46.4069 86.6419C47.6651 86.6419 48.67 87.0634 49.4381 87.9064Z" fill="#98999B"/>
<path d="M56.9384 97.7077H54.7242L56.9712 84.8157H59.1853L56.9384 97.7077Z" fill="#98999B"/>
<path d="M58.4908 82.4687C58.0823 82.4687 57.7636 82.3199 57.5186 82.0306C57.2816 81.7414 57.1917 81.386 57.2653 80.9727C57.3305 80.5431 57.5267 80.1794 57.8535 79.8902C58.1804 79.601 58.5562 79.4521 58.9974 79.4521C59.4058 79.4521 59.7327 79.601 59.9777 79.9067C60.2229 80.2042 60.3128 80.5678 60.2473 80.9811C60.1656 81.4108 59.9614 81.7661 59.6345 82.0554C59.3078 82.3446 58.932 82.4852 58.4908 82.4852V82.4687Z" fill="#98999B"/>
<path d="M72.2341 85.923C71.466 84.9562 70.3385 84.4769 68.8434 84.4769L68.8515 84.4851C67.0295 84.4851 65.5752 85.171 64.4885 86.5264L64.7909 84.8239H62.5768L60.3299 97.7161H62.544L63.745 90.8568V90.8815C63.982 89.4849 64.4968 88.4271 65.2974 87.7081C66.0981 86.9892 67.0621 86.6256 68.1816 86.6256C69.1947 86.6256 69.9301 86.9065 70.3711 87.4768C70.8123 88.0387 70.9432 88.8569 70.7553 89.9229L69.4071 97.7078H71.6212L73.002 89.7908C73.288 88.1626 73.0346 86.8651 72.2341 85.923Z" fill="#98999B"/>
<path fill-rule="evenodd" clip-rule="evenodd" d="M87.1286 87.237L87.5616 84.8156H89.7511L87.6106 97.1706C87.2674 99.1292 86.4259 100.625 85.086 101.658C83.7623 102.691 82.161 103.204 80.2901 103.204C78.9338 103.204 77.7491 102.931 76.7604 102.377C75.772 101.823 75.0448 101.055 74.6036 100.055L76.5644 99.0218C77.1609 100.418 78.4436 101.113 80.4126 101.113C81.7934 101.113 82.9127 100.766 83.7788 100.08C84.6448 99.3937 85.1922 98.4184 85.4127 97.1624L85.6661 95.6418C84.3915 97.1541 82.7329 97.9144 80.6904 97.9144C78.6479 97.9144 77.2671 97.2368 76.2295 95.8731C75.2081 94.5177 74.8487 92.865 75.1591 90.9229C75.4288 89.047 76.2703 87.5015 77.6837 86.2784C79.0807 85.0718 80.6413 84.4769 82.3734 84.4769C83.4438 84.4769 84.3996 84.7165 85.2411 85.1957C86.0828 85.675 86.7037 86.3528 87.1123 87.237H87.1286ZM81.2133 95.7492C82.4225 95.7492 83.5173 95.3691 84.5058 94.6169C85.4945 93.8236 86.1236 92.8153 86.3932 91.5758L86.5239 90.9064C86.6792 89.6007 86.3523 88.5592 85.5517 87.7825C84.7673 87.0057 83.787 86.6256 82.5941 86.6256C81.4013 86.6256 80.2492 87.0387 79.2279 87.8651C78.2066 88.6586 77.5938 89.7411 77.3896 91.113C77.1691 92.4187 77.414 93.5261 78.1331 94.4435C78.8847 95.3194 79.906 95.7575 81.2215 95.7575L81.2133 95.7492Z" fill="#98999B"/>
<path d="M102.708 86.9808H106.09L106.474 84.8156H103.059L103.696 81.2041L101.351 81.8735L100.845 84.8156H98.3446L97.9362 86.9808H100.461L99.2597 93.9722C98.9901 95.5177 99.276 96.592 100.118 97.1954C100.959 97.7903 102.332 97.9639 104.235 97.7076L104.595 95.6995C103.843 95.7408 103.214 95.7408 102.708 95.7408C102.193 95.7243 101.833 95.5837 101.621 95.311C101.409 95.0383 101.359 94.5921 101.482 93.9722L102.708 86.9808Z" fill="#98999B"/>
<path fill-rule="evenodd" clip-rule="evenodd" d="M114.254 84.4769C116.174 84.4769 117.644 85.1463 118.666 86.485C119.703 87.7907 120.046 89.3939 119.687 91.2866C119.671 91.4931 119.581 91.832 119.434 92.2948H108.772C108.772 93.427 109.123 94.3194 109.817 94.964C110.512 95.6087 111.46 95.931 112.644 95.931C114.344 95.931 115.692 95.2947 116.697 94.0219L118.355 95.2368C117.71 96.1129 116.86 96.7987 115.806 97.3028C114.752 97.7987 113.616 98.0548 112.391 98.0548C110.381 98.0548 108.845 97.3772 107.775 96.0135C106.721 94.6583 106.353 92.9889 106.68 91.0138C107.007 89.1379 107.881 87.5842 109.303 86.3446C110.732 85.1048 112.383 84.4851 114.246 84.4851L114.254 84.4769ZM109.115 90.303H117.596C117.644 89.0965 117.358 88.1791 116.729 87.5429C116.1 86.9065 115.234 86.5924 114.131 86.5924C112.938 86.5924 111.901 86.923 111.01 87.5842C110.12 88.2453 109.482 89.1544 109.115 90.303Z" fill="#98999B"/>
<path d="M122.669 95.9805C123.772 97.3607 125.267 98.0465 127.154 98.0465C128.47 98.0465 129.671 97.7573 130.766 97.1706C131.861 96.5922 132.735 95.774 133.38 94.7245L131.599 93.5344C131.133 94.2534 130.545 94.8154 129.81 95.2203C129.083 95.6169 128.29 95.8235 127.44 95.8235C126.133 95.8235 125.136 95.3773 124.458 94.4847C123.78 93.5674 123.551 92.4599 123.772 91.1542C123.993 89.8817 124.605 88.8155 125.61 87.956C126.607 87.0966 127.759 86.6668 129.05 86.6668C130.823 86.6668 131.983 87.3941 132.547 88.8569L134.508 87.8239C134.132 86.7991 133.478 85.9809 132.531 85.3776C131.591 84.7744 130.488 84.4769 129.23 84.4769C127.342 84.4769 125.667 85.0883 124.205 86.3114C122.775 87.5015 121.893 89.0552 121.55 90.9807C121.207 92.9392 121.582 94.6086 122.669 95.9805Z" fill="#98999B"/>
<path d="M143.528 84.4766C145.023 84.4766 146.15 84.9559 146.918 85.9229C147.719 86.865 147.972 88.1625 147.686 89.7905L146.305 97.7076H144.083L145.431 89.9228C145.619 88.8566 145.488 88.0384 145.047 87.4765C144.606 86.9063 143.871 86.6253 142.858 86.6253C141.738 86.6253 140.774 86.9889 139.982 87.708C139.181 88.427 138.666 89.4847 138.429 90.8814V90.8566L137.228 97.7158H135.006L138.143 79.6585H140.357L139.165 86.5179C140.251 85.1626 141.706 84.4766 143.519 84.4766H143.528Z" fill="#98999B"/>
<path d="M161.297 85.923C160.529 84.9562 159.402 84.4769 157.906 84.4769V84.4851C156.084 84.4851 154.63 85.171 153.543 86.5264L153.846 84.8239H151.623L149.377 97.7161H151.599L152.8 90.8568V90.8815C153.037 89.4849 153.552 88.4271 154.352 87.7081C155.153 86.9892 156.117 86.6256 157.236 86.6256C158.249 86.6256 158.985 86.9065 159.426 87.4768C159.867 88.0387 159.998 88.8569 159.81 89.9229L158.462 97.7078H160.684L162.065 89.7908C162.351 88.1626 162.098 86.8651 161.297 85.923Z" fill="#98999B"/>
<path d="M165.987 97.7077H163.765L166.011 84.8157H168.234L165.987 97.7077Z" fill="#98999B"/>
<path d="M167.539 82.4687C167.131 82.4687 166.804 82.3199 166.567 82.0306C166.33 81.7414 166.24 81.386 166.314 80.9727C166.379 80.5431 166.575 80.1794 166.902 79.8902C167.229 79.601 167.604 79.4521 168.046 79.4521C168.454 79.4521 168.781 79.601 169.026 79.9067C169.271 80.2042 169.361 80.5678 169.296 80.9811C169.206 81.4108 169.002 81.7661 168.683 82.0554C168.364 82.3446 167.98 82.4852 167.539 82.4852V82.4687Z" fill="#98999B"/>
<path d="M170.964 95.9805C172.067 97.3607 173.562 98.0465 175.449 98.0465H175.457C176.765 98.0465 177.966 97.7573 179.06 97.1706C180.155 96.5922 181.029 95.774 181.674 94.7245L179.886 93.5344C179.428 94.2534 178.831 94.8154 178.104 95.2203C177.377 95.6169 176.585 95.8235 175.735 95.8235C174.428 95.8235 173.431 95.3773 172.753 94.4847C172.067 93.5674 171.846 92.4599 172.067 91.1542C172.287 89.8817 172.9 88.8155 173.905 87.956C174.902 87.0966 176.054 86.6668 177.345 86.6668C179.118 86.6668 180.278 87.3941 180.841 88.8569L182.802 87.8239C182.426 86.7991 181.765 85.9809 180.825 85.3776C179.886 84.7744 178.783 84.4769 177.525 84.4769C175.637 84.4769 173.962 85.0883 172.5 86.3114C171.07 87.5015 170.179 89.0552 169.844 90.9807C169.501 92.9392 169.877 94.6086 170.964 95.9805Z" fill="#98999B"/>
<path fill-rule="evenodd" clip-rule="evenodd" d="M182.165 74.4295H0.392944V71.1196H182.165V74.4295Z" fill="#25577A"/>
</svg>
