<svg width="148" height="78" viewBox="0 0 148 78" fill="none" xmlns="http://www.w3.org/2000/svg">
<g clip-path="url(#clip0_539_410)">
<path d="M59.828 42.7113L52.4611 33.4947C50.6815 31.3315 49.1064 29.6766 47.7173 28.5485C46.347 27.4081 44.8463 26.6023 43.2216 26.1436C53.3976 24.5693 58.4948 20.6892 58.4948 14.5097C58.4948 10.0657 56.5104 6.53891 52.5666 3.9233C48.6103 1.30768 43.5379 0.006073 37.3616 0.006073H3.9691C2.92113 0.006073 2.02197 0.303584 1.30266 0.898606C0.570938 1.49363 0.205078 2.20022 0.205078 3.02457V9.01817H32.7047C35.4889 9.01817 37.9321 9.45204 40.0468 10.326C42.1613 11.1999 43.2216 12.5883 43.2216 14.5036C43.2216 16.4187 42.1613 17.8071 40.0468 18.6811C37.9321 19.5426 35.4889 19.9888 32.7047 19.9888H15.4596V12.5635H0.205078V42.7113C0.205078 43.5356 0.583341 44.2423 1.33987 44.831C2.08399 45.4198 3.00175 45.7049 4.04352 45.7049H11.6584C12.7063 45.7049 13.6055 45.4198 14.3496 44.831C15.0938 44.2423 15.4596 43.5356 15.4596 42.7113V29.0009H25.3378C29.3624 29.0009 32.7853 30.7488 35.6191 34.2384L42.5023 42.7175C43.141 43.5419 44.0835 44.2485 45.3114 44.8372C46.5392 45.426 47.6616 45.7112 48.6971 45.7112H58.4017C59.7846 45.7112 60.4667 45.2587 60.4667 44.3414C60.4667 43.8455 60.2559 43.3125 59.828 42.7175V42.7113Z" fill="white"/>
<path d="M147.287 0.650805C146.816 0.216935 146.127 0 145.21 0H136.342C135.294 0 134.314 0.285114 133.428 0.861542C132.541 1.42557 131.902 2.15696 131.536 3.02469L120.852 28.2698L110.974 3.02469C110.192 1.0103 108.58 0 106.156 0H98.6709C96.9408 0.00619814 95.775 1.41317 96.3021 2.71479L102.422 17.9313L102.435 17.9126L112.034 41.7878L112.307 42.4573C113.169 44.6266 115.104 45.705 118.093 45.705H123.959C126.848 45.705 128.789 44.6266 129.788 42.4573L147.833 2.67759C147.938 2.42347 148 2.13216 148 1.80366C148 1.47515 147.765 1.09087 147.28 0.650805H147.287ZM84.0055 28.2698L73.3211 3.02469C72.9427 2.16316 72.3164 1.43177 71.4298 0.861542C70.5306 0.285114 69.5632 0 68.5029 0H59.6478C58.7053 0 57.9859 0.216935 57.5209 0.650805C57.0496 1.09087 56.814 1.47515 56.814 1.80366C56.814 2.13216 56.8822 2.42347 57.0248 2.67759L75.0636 42.4573C76.0681 44.6266 77.9905 45.705 80.8492 45.705H86.7649C89.729 45.705 91.6637 44.6266 92.5504 42.4573L100.432 22.834L93.1953 4.87175L84.0055 28.2698Z" fill="white"/>
<path d="M8.74965 70.9815L12.154 63.6118H13.9895L9.27055 73.281H7.54666L6.56069 66.1035L3.07571 73.281H1.31462L0 63.6118H1.66188L2.55483 70.9629L6.07701 63.6118H7.75749L7.73888 63.6491L8.74345 70.9815H8.74965Z" fill="white"/>
<path d="M19.7569 63.3577C21.2142 63.3577 22.3304 63.8597 23.1055 64.8637C23.8931 65.843 24.1535 67.0454 23.8806 68.4649C23.8682 68.6198 23.8 68.874 23.6885 69.2211H15.5961C15.5961 70.0702 15.8628 70.7395 16.3898 71.223C16.9169 71.7065 17.6362 71.9483 18.5354 71.9483C19.8251 71.9483 20.8484 71.471 21.6111 70.5164L22.8699 71.4276C22.38 72.0846 21.7351 72.599 20.9351 72.9771C20.1353 73.349 19.2732 73.5411 18.3431 73.5411C16.8176 73.5411 15.6519 73.0329 14.8396 72.0101C14.0397 70.9937 13.7606 69.7417 14.0086 68.2604C14.2567 66.8534 14.9201 65.6881 15.9992 64.7584C17.0843 63.8286 18.3369 63.3638 19.7507 63.3638L19.7569 63.3577ZM15.8503 67.7273H22.2932C22.3304 66.8223 22.1134 66.1343 21.6359 65.6572C21.1583 65.1799 20.5011 64.9443 19.664 64.9443C18.7586 64.9443 17.9711 65.1923 17.2951 65.6881C16.6192 66.1839 16.1356 66.8658 15.8566 67.7273H15.8503Z" fill="white"/>
<path d="M26.6644 73.2807H24.9777L26.0008 67.3987L27.4518 59.1614H29.1385L26.6644 73.2807Z" fill="white"/>
<path d="M38.6632 65.4279L39.6678 59.7379H41.3482L38.9671 73.2809H37.2804L37.5347 71.8863C36.5177 72.9834 35.2217 73.5289 33.6466 73.5289C32.2514 73.5289 31.1601 73.0019 30.3786 71.9421C29.5911 70.8946 29.3244 69.6611 29.5849 68.2294C29.833 66.7481 30.4841 65.5642 31.5383 64.6902C32.58 63.7977 33.7645 63.3576 35.0791 63.3576C35.8913 63.3576 36.6108 63.5375 37.2369 63.8969C37.8632 64.2564 38.3346 64.7646 38.6571 65.4279H38.6632ZM38.1237 68.5207C38.316 67.4236 38.1237 66.5621 37.5223 65.9299C36.9393 65.2977 36.1766 64.9815 35.2217 64.9815C34.2667 64.9815 33.4481 65.2853 32.6854 65.8927C31.9103 66.5125 31.4391 67.3369 31.2716 68.3658C31.0918 69.3698 31.2716 70.2128 31.8111 70.8822C32.3816 71.5641 33.1443 71.905 34.1117 71.905C35.0791 71.905 35.9781 71.5888 36.7223 70.9566C37.485 70.312 37.9502 69.5 38.1175 68.5207H38.1237Z" fill="white"/>
<path d="M43.2148 73.2807H41.5343L43.2397 63.6117H44.9202L43.2148 73.2807ZM44.393 61.8514C44.083 61.8514 43.8411 61.7398 43.6552 61.5229C43.4753 61.306 43.4071 61.0394 43.4629 60.7295C43.5124 60.4072 43.6613 60.1345 43.9093 59.9176C44.1574 59.7007 44.4427 59.589 44.7775 59.589C45.0875 59.589 45.3356 59.7007 45.5216 59.93C45.7076 60.1531 45.7759 60.4258 45.7262 60.7358C45.6642 61.058 45.5092 61.3245 45.2611 61.5415C45.0131 61.7584 44.7279 61.8638 44.393 61.8638V61.8514Z" fill="white"/>
<path d="M52.2503 63.3577C53.3851 63.3577 54.2408 63.7171 54.8238 64.4423C55.4314 65.1488 55.6236 66.1219 55.4066 67.343L54.3586 73.2809H52.6782L53.7014 67.4422C53.844 66.6427 53.7447 66.029 53.4098 65.6075C53.0751 65.1799 52.517 64.9692 51.7481 64.9692C50.8984 64.9692 50.1668 65.2419 49.559 65.781C48.9514 66.3203 48.5607 67.1136 48.3808 68.1611V68.1426L47.4692 73.2871H45.7888L47.4941 63.6179H49.1746L48.9451 64.8948C49.7698 63.8782 50.8736 63.3638 52.2565 63.3638L52.2503 63.3577Z" fill="white"/>
<path d="M66.1283 65.4277L66.457 63.6117H68.1187L66.4941 72.878C66.2336 74.3469 65.5949 75.4688 64.578 76.2435C63.5734 77.0183 62.3581 77.4026 60.9381 77.4026C59.9087 77.4026 59.0095 77.1981 58.2591 76.7828C57.5089 76.3675 56.957 75.7911 56.6221 75.0411L58.1103 74.2664C58.5631 75.3138 59.5366 75.8344 61.031 75.8344C62.079 75.8344 62.9285 75.5742 63.5859 75.0597C64.2432 74.5453 64.6586 73.8138 64.826 72.8718L65.0183 71.7314C64.0509 72.8656 62.7921 73.4358 61.2419 73.4358C59.6916 73.4358 58.6437 72.9276 57.8562 71.9048C57.0809 70.8883 56.8082 69.6488 57.0438 68.1922C57.2484 66.7852 57.8871 65.6261 58.9598 64.7088C60.0202 63.8039 61.2046 63.3577 62.5192 63.3577C63.3316 63.3577 64.0571 63.5373 64.6958 63.8968C65.3346 64.2563 65.8058 64.7646 66.1159 65.4277H66.1283ZM61.6388 71.8119C62.5565 71.8119 63.3875 71.5268 64.1377 70.9627C64.888 70.3677 65.3655 69.6115 65.5702 68.6818L65.6693 68.1798C65.7872 67.2005 65.5391 66.4194 64.9315 65.8368C64.3361 65.2543 63.5921 64.9692 62.6867 64.9692C61.7814 64.9692 60.907 65.279 60.1319 65.8988C59.3567 66.4939 58.8916 67.3058 58.7366 68.3347C58.5693 69.314 58.7552 70.1446 59.3009 70.8326C59.8714 71.4896 60.6465 71.8181 61.645 71.8181L61.6388 71.8119Z" fill="white"/>
<path d="M80.526 65.2357H77.9525L77.0223 70.4793C76.9293 70.9442 76.9666 71.2788 77.1278 71.4834C77.289 71.6879 77.5618 71.7934 77.9525 71.8057C78.3369 71.8057 78.8144 71.8057 79.3849 71.7748L79.1121 73.2809C77.6673 73.473 76.6255 73.3429 75.9868 72.8966C75.348 72.4441 75.131 71.6384 75.3356 70.4793L76.2472 65.2357H74.3311L74.6411 63.6118H76.5387L76.9231 61.4052L78.7028 60.9032L78.2192 63.6118H80.8112L80.5198 65.2357H80.526Z" fill="white"/>
<path d="M86.7156 63.3577C88.1729 63.3577 89.2891 63.8597 90.0642 64.8637C90.8518 65.843 91.1122 67.0454 90.8393 68.4649C90.8269 68.6198 90.7587 68.874 90.6472 69.2211H82.5548C82.5548 70.0702 82.8215 70.7395 83.3485 71.223C83.8756 71.7065 84.5949 71.9483 85.4941 71.9483C86.7838 71.9483 87.8071 71.471 88.5698 70.5164L89.8286 71.4276C89.3387 72.0846 88.6938 72.599 87.8938 72.9771C87.094 73.349 86.2319 73.5411 85.3018 73.5411C83.7763 73.5411 82.6106 73.0329 81.7983 72.0101C80.9984 70.9937 80.7193 69.7417 80.9673 68.2604C81.2154 66.8534 81.8788 65.6881 82.9579 64.7584C84.043 63.8286 85.2956 63.3638 86.7094 63.3638L86.7156 63.3577ZM82.809 67.7273H89.2519C89.2891 66.8223 89.072 66.1343 88.5945 65.6572C88.117 65.1799 87.4598 64.9443 86.6227 64.9443C85.7173 64.9443 84.9298 65.1923 84.2538 65.6881C83.5779 66.1839 83.0943 66.8658 82.8153 67.7273H82.809Z" fill="white"/>
<path d="M96.5069 73.5349C95.0745 73.5349 93.9396 73.0205 93.1025 71.9854C92.2779 70.9565 91.9926 69.7044 92.253 68.2355C92.5135 66.7914 93.1832 65.6261 94.2683 64.7335C95.3783 63.8162 96.6495 63.3577 98.082 63.3577C99.0369 63.3577 99.874 63.5808 100.587 64.0332C101.307 64.4857 101.803 65.0993 102.088 65.8679L100.6 66.6427C100.172 65.5456 99.2912 65.0001 97.9456 65.0001C96.9658 65.0001 96.0914 65.3224 95.3349 65.967C94.5721 66.6116 94.1071 67.4112 93.9396 68.3657C93.7723 69.345 93.9458 70.1755 94.4606 70.8635C94.9752 71.533 95.7318 71.8676 96.7239 71.8676C97.3688 71.8676 97.9704 71.7127 98.5223 71.4152C99.0804 71.1115 99.5268 70.6901 99.8802 70.1508L101.232 71.0433C100.742 71.8305 100.079 72.4441 99.2477 72.878C98.4168 73.318 97.5052 73.5349 96.5069 73.5349Z" fill="white"/>
<path d="M108.934 63.3575C110.069 63.3575 110.924 63.717 111.507 64.4422C112.115 65.1488 112.307 66.1219 112.09 67.3429L111.042 73.2807H109.355L110.379 67.4422C110.521 66.6425 110.422 66.0289 110.087 65.6074C109.752 65.1798 109.194 64.969 108.425 64.969C107.576 64.969 106.844 65.2418 106.242 65.781C105.635 66.3203 105.244 67.1136 105.064 68.1611V68.1425L104.153 73.2869H102.466L104.847 59.744H106.528L105.622 64.8885C106.447 63.872 107.551 63.3575 108.928 63.3575H108.934Z" fill="white"/>
<path d="M119.847 63.3577C120.982 63.3577 121.837 63.7171 122.42 64.4423C123.028 65.1488 123.22 66.1219 123.003 67.343L121.955 73.2809H120.268L121.292 67.4422C121.434 66.6427 121.335 66.029 121 65.6075C120.665 65.1799 120.107 64.9692 119.338 64.9692C118.489 64.9692 117.757 65.2419 117.149 65.781C116.542 66.3203 116.151 67.1136 115.971 68.1611V68.1426L115.06 73.2871H113.373L115.078 63.6179H116.765L116.535 64.8948C117.36 63.8782 118.464 63.3638 119.847 63.3638V63.3577Z" fill="white"/>
<path d="M125.98 73.2807H124.293L125.998 63.6117H127.685L125.98 73.2807ZM127.158 61.8514C126.848 61.8514 126.6 61.7398 126.42 61.5229C126.24 61.306 126.172 61.0394 126.228 60.7295C126.277 60.4072 126.426 60.1345 126.674 59.9176C126.922 59.7007 127.207 59.589 127.542 59.589C127.852 59.589 128.1 59.7007 128.286 59.93C128.472 60.1531 128.541 60.4258 128.491 60.7358C128.423 61.058 128.268 61.3245 128.026 61.5415C127.784 61.7584 127.493 61.8638 127.158 61.8638V61.8514Z" fill="white"/>
<path d="M133.161 73.5349C131.729 73.5349 130.594 73.0205 129.757 71.9854C128.932 70.9565 128.647 69.7044 128.907 68.2355C129.162 66.7914 129.838 65.6261 130.923 64.7335C132.033 63.8162 133.304 63.3577 134.737 63.3577C135.692 63.3577 136.529 63.5808 137.242 64.0332C137.955 64.4857 138.457 65.0993 138.742 65.8679L137.254 66.6427C136.826 65.5456 135.946 65.0001 134.601 65.0001C133.62 65.0001 132.746 65.3224 131.989 65.967C131.227 66.6116 130.762 67.4112 130.594 68.3657C130.427 69.345 130.594 70.1755 131.115 70.8635C131.63 71.533 132.386 71.8676 133.378 71.8676C134.023 71.8676 134.625 71.7127 135.176 71.4152C135.728 71.1115 136.182 70.6901 136.529 70.1508L137.886 71.0433C137.396 71.8305 136.733 72.4441 135.902 72.878C135.072 73.318 134.16 73.5349 133.168 73.5349H133.161Z" fill="white"/>
<path fill-rule="evenodd" clip-rule="evenodd" d="M138.259 55.8221H0.29834V53.3397H138.259V55.8221Z" fill="white"/>
</g>
<defs>
<clipPath id="clip0_539_410">
<rect width="148" height="78" fill="white"/>
</clipPath>
</defs>
</svg>
